<?xml version="1.0" encoding="UTF-8"?>
<svg xmlns="http://www.w3.org/2000/svg" xmlns:xlink="http://www.w3.org/1999/xlink" width="375pt" height="374.999991pt" viewBox="0 0 375 374.999991" version="1.2">
<defs>
<clipPath id="clip1">
  <path d="M 31.445312 31.445312 L 343.445312 31.445312 L 343.445312 343.445312 L 31.445312 343.445312 Z M 31.445312 31.445312 "/>
</clipPath>
</defs>
<g id="surface1">
<g clip-path="url(#clip1)" clip-rule="nonzero">
<path style=" stroke:none;fill-rule:nonzero;fill:rgb(23.529053%,36.859131%,27.839661%);fill-opacity:1;" d="M 343.433594 187.445312 C 343.433594 273.605469 273.574219 343.453125 187.414062 343.453125 C 101.25 343.453125 31.402344 273.605469 31.402344 187.445312 C 31.402344 101.277344 101.25 31.429688 187.414062 31.429688 C 273.574219 31.429688 343.433594 101.277344 343.433594 187.445312 "/>
</g>
<path style=" stroke:none;fill-rule:nonzero;fill:rgb(100%,100%,100%);fill-opacity:1;" d="M 165.554688 259.730469 C 160.726562 259.730469 156.152344 257.578125 153.082031 253.835938 L 117.007812 209.953125 C 111.335938 203.082031 112.328125 192.902344 119.214844 187.242188 C 126.113281 181.578125 136.28125 182.570312 141.9375 189.453125 L 164.613281 217.027344 L 232.199219 121.957031 C 237.359375 114.679688 247.445312 112.980469 254.707031 118.136719 C 261.976562 123.308594 263.679688 133.390625 258.507812 140.65625 L 178.710938 252.933594 C 175.789062 257.03125 171.148438 259.546875 166.121094 259.714844 C 165.925781 259.730469 165.730469 259.730469 165.554688 259.730469 "/>
</g>
</svg>
